HIERARCHY
ROOT Hips
{
	OFFSET 0.00000 0.00000 0.00000
	CHANNELS 6 Xposition Yposition Zposition Zrotation Yrotation Xrotation 
	JOINT LHipJoint
	{
		OFFSET 0 0 0
		CHANNELS 3 Zrotation Yrotation Xrotation
		JOINT LeftHip
		{
			OFFSET 1.66553 -1.82942 0.76350
			CHANNELS 3 Zrotation Yrotation Xrotation
			JOINT LeftKnee
			{
				OFFSET 2.41740 -6.64177 0.00000
				CHANNELS 3 Zrotation Yrotation Xrotation
				JOINT LeftAnkle
				{
					OFFSET 2.71614 -7.46254 0.00000
					CHANNELS 3 Zrotation Yrotation Xrotation
					JOINT LeftToe
					{
						OFFSET 0.08005 -0.21993 1.82495
						CHANNELS 3 Zrotation Yrotation Xrotation
						End Site
						{
							OFFSET 0.00000 -0.00000 0.93441
						}
					}
				}
			}
		}
	}
	JOINT RHipJoint
	{
		OFFSET 0 0 0
		CHANNELS 3 Zrotation Yrotation Xrotation
		JOINT RightHip
		{
			OFFSET -1.63725 -1.82942 0.76350
			CHANNELS 3 Zrotation Yrotation Xrotation
			JOINT RightKnee
			{
				OFFSET -2.40538 -6.60872 0.00000
				CHANNELS 3 Zrotation Yrotation Xrotation
				JOINT RightAnkle
				{
					OFFSET -2.73312 -7.50919 0.00000
					CHANNELS 3 Zrotation Yrotation Xrotation
					JOINT RightToe
					{
						OFFSET -0.15567 -0.42769 1.93504
						CHANNELS 3 Zrotation Yrotation Xrotation
						End Site
						{
							OFFSET -0.00000 -0.00000 1.00100
						}
					}
				}
			}
		}
	}
	JOINT lowerback
	{
		OFFSET 0 0 0
		CHANNELS 3 Zrotation Yrotation Xrotation
		JOINT Chest
		{
			OFFSET 0.00326 2.30118 -0.13017
			CHANNELS 3 Zrotation Yrotation Xrotation
			JOINT Chest2
			{
				OFFSET 0.02887 2.30677 0.00834
				CHANNELS 3 Zrotation Yrotation Xrotation
				JOINT lowerneck
				{
					OFFSET 0 0 0
					CHANNELS 3 Zrotation Yrotation Xrotation
					JOINT Neck
					{
						OFFSET 0.12946 1.68326 0.00713
						CHANNELS 3 Zrotation Yrotation Xrotation
						JOINT Head
						{
							OFFSET -0.24364 1.67243 -0.16079
							CHANNELS 3 Zrotation Yrotation Xrotation
							End Site
							{
								OFFSET -0.09229 1.70819 -0.06383
							}
						}
					}
				}
				JOINT LeftCollar
				{
					OFFSET 0 0 0
					CHANNELS 3 Zrotation Yrotation Xrotation
					JOINT LeftShoulder
					{
						OFFSET 3.28104 0.69567 -0.00556
CHANNELS 3 Zrotation Xrotation Yrotation
						JOINT LeftElbow
						{
OFFSET 0 -5.707060 -0.000000
CHANNELS 3 Zrotation Xrotation Yrotation
							JOINT LeftWrist
							{
OFFSET 0 -3.332430 0.000000
CHANNELS 3 Zrotation Xrotation Yrotation
								JOINT lhand
								{
									OFFSET 0 0 0
CHANNELS 3 Zrotation Xrotation Yrotation
									JOINT LFingers
									{
OFFSET 0 -0.792690 0.000000
CHANNELS 3 Zrotation Xrotation Yrotation
										End Site
										{
OFFSET 0 -0.639090 0.000000
										}
									}
								}
								JOINT LThumb
								{
OFFSET 0 0.000000 0.000000
CHANNELS 3 Zrotation Xrotation Yrotation
									End Site
									{
OFFSET 0 -0.648840 0.648840
									}
								}
							}
						}
					}
				}
				JOINT RightCollar
				{
					OFFSET 0 0 0
					CHANNELS 3 Zrotation Yrotation Xrotation
					JOINT RightShoulder
					{
						OFFSET -3.40955 0.64424 0.14010
CHANNELS 3 Zrotation Xrotation Yrotation
						JOINT RightElbow
						{
OFFSET 0 -5.881760 -0.000000
CHANNELS 3 Zrotation Xrotation Yrotation
							JOINT RightWrist
							{
OFFSET 0 -3.281560 0.000000
CHANNELS 3 Zrotation Xrotation Yrotation
								JOINT rhand
								{
									OFFSET 0 0 0
CHANNELS 3 Zrotation Xrotation Yrotation
									JOINT RFingers
									{
OFFSET 0 -0.863130 0.000000
CHANNELS 3 Zrotation Xrotation Yrotation
										End Site
										{
OFFSET 0 -0.695870 0.000000
										}
									}
								}
								JOINT RThumb
								{
OFFSET 0 0.000000 0.000000
CHANNELS 3 Zrotation Xrotation Yrotation
									End Site
									{
OFFSET 0 -0.706500 0.706500
									}
								}
							}
						}
					}
				}
			}
		}
	}
}
MOTION
Frames: 5
Frame Time: 0.008333333333333333
2.869765 17.606058 -15.821011 -2.920782 -129.487803 19.842826 0.000000 0.000000 0.000000 -9.096935 -15.831617 -38.205371 9.460907 17.093220 57.667809 -0.262507 -9.190916 5.052943 0.449399 4.279027 11.866342 0.000000 0.000000 0.000000 2.822841 16.400688 -47.778260 -4.018165 -12.183623 36.385936 0.000890 -1.360887 0.713779 -1.495700 -7.703184 21.827264 0.336250 -1.919869 14.444402 0.215665 -2.669194 -7.711732 0.844675 -1.287393 -17.000557 17.639975 11.631987 12.334257 -24.785762 13.458933 -28.234010 -12.716197 7.057920 -7.176485 0.000000 0.000000 0.000000 15.924481 -0.112253 -32.908577 78.685334 -59.509775 50.217394 -1.576978 -0.920806 -5.692123 0.000000 0.000000 0.000000 -7.125000 0.000000 0.000000 -23.096450 34.816811 -6.199558 0.000000 0.000000 0.000000 -2.484034 11.252002 -5.156244 -10.836193 -18.035951 -1.725481 -10.054459 13.157302 -15.726534 0.000000 0.000000 0.000000 7.125000 0.000000 0.000000 11.814359 14.254260 8.731740
2.685704 17.308345 -16.710782 -4.317190 -126.923160 19.346731 0.000000 0.000000 0.000000 -6.547659 -16.010351 -41.772724 12.592343 18.628759 67.853221 -0.286674 -9.632037 5.530557 0.239319 2.703876 7.489408 0.000000 0.000000 0.000000 4.498679 14.998613 -46.739745 -5.560882 -13.987123 43.189396 -0.144292 4.489847 -6.971075 -1.090187 -6.635406 18.639684 1.575172 -1.414732 16.209467 -0.354134 -1.752144 -7.846835 -0.731532 -1.055832 -18.398477 17.230490 11.280530 10.873456 -23.207145 13.503914 -24.792695 -11.569082 7.066996 -6.042586 0.000000 0.000000 0.000000 16.146871 5.009553 -35.183568 73.161441 -58.899301 45.471425 -4.010597 -4.284306 -10.716353 0.000000 0.000000 0.000000 -7.125000 0.000000 0.000000 -26.576528 39.206886 -4.145903 0.000000 0.000000 0.000000 -2.854427 10.150177 -4.799836 -11.126703 -18.482250 -1.815919 -9.443717 12.286902 -15.885738 0.000000 0.000000 0.000000 7.125000 0.000000 0.000000 12.216778 14.139947 9.074531
2.546942 16.936129 -17.428302 -5.633322 -125.455441 20.386131 0.000000 0.000000 0.000000 -4.655573 -15.811033 -46.904056 14.744896 19.324527 74.466948 0.195574 -6.740082 -8.557492 0.058047 -1.551129 -4.266708 0.000000 0.000000 0.000000 6.326228 14.189287 -48.816263 -7.555260 -15.781861 50.944032 -0.729677 5.409447 -15.214690 -1.247798 -7.080284 19.954422 2.251308 -1.310351 17.411013 -0.231923 -1.374339 -7.753248 -1.074129 -0.952526 -19.078257 17.674756 11.376108 11.222882 -24.816899 13.276516 -26.007645 -12.378067 7.039289 -6.308726 0.000000 0.000000 0.000000 14.438882 11.224734 -31.987517 68.368547 -58.155413 41.382739 2.488261 3.268537 -8.392806 0.000000 0.000000 0.000000 -7.125000 0.000000 0.000000 -20.608891 37.592558 -3.963154 0.000000 0.000000 0.000000 -6.144227 5.816952 0.444302 -11.639317 -19.261439 -1.981781 -12.590509 12.101134 -16.050635 0.000000 0.000000 0.000000 7.125000 0.000000 0.000000 10.119956 13.736763 7.548397
2.490414 16.540769 -17.933476 -7.514297 -124.380282 23.023245 0.000000 0.000000 0.000000 -3.128869 -16.631873 -52.593370 14.915822 19.368585 74.982902 0.434889 -9.361724 -12.572247 0.000110 -0.051719 -0.142024 0.000000 0.000000 0.000000 5.591058 15.307140 -52.319389 -9.589729 -17.172491 58.107818 -1.303066 5.585862 -20.461474 -1.156540 -6.826965 19.203909 3.235381 -1.274072 18.725459 -0.471307 -1.049027 -7.699198 -2.014866 -0.960763 -19.904520 18.872588 11.245185 11.443866 -26.682052 12.624662 -28.255933 -13.588362 6.695530 -6.887233 0.000000 0.000000 0.000000 12.192916 16.368776 -27.111478 65.348612 -57.574439 38.825098 6.996395 16.644934 -13.328390 0.000000 0.000000 0.000000 -7.125000 0.000000 0.000000 -18.291793 42.642022 -1.104240 0.000000 0.000000 0.000000 -8.611997 1.809177 3.929666 -15.090673 -24.272017 -3.263306 -15.496370 7.989024 -14.928850 0.000000 0.000000 0.000000 7.125000 0.000000 0.000000 8.161986 14.623362 5.898298
2.437102 16.329473 -18.265473 -9.472763 -124.322508 26.212511 0.000000 0.000000 0.000000 -2.959737 -17.600186 -56.540966 13.507305 18.957426 70.693769 0.629862 -10.734069 -14.990829 0.011039 -0.677831 -1.862809 0.000000 0.000000 0.000000 4.358074 16.051695 -55.322929 -10.851136 -17.861422 62.297117 -1.648285 5.477034 -23.123418 -0.854256 -5.891276 16.470256 4.386719 -0.833831 19.607506 -1.136952 -0.193246 -7.930874 -3.700525 -0.801939 -20.127102 19.032205 11.126283 11.465130 -27.723656 11.822424 -30.591085 -14.396329 6.255939 -7.713545 0.000000 0.000000 0.000000 11.093486 19.236022 -24.116681 65.090018 -57.520355 38.606933 -1.751559 20.254454 -17.898364 0.000000 0.000000 0.000000 -7.125000 0.000000 0.000000 -27.638710 45.858238 0.636607 0.000000 0.000000 0.000000 -10.118889 -1.042339 5.238578 -20.893222 -31.701286 -5.994687 -21.086409 -1.638062 -13.621678 0.000000 0.000000 0.000000 7.125000 0.000000 0.000000 4.317148 15.448578 3.020030
